<?xml version="1.0" encoding="UTF-8" standalone="no"?>
<svg
   xmlns:dc="http://purl.org/dc/elements/1.1/"
   xmlns:cc="http://creativecommons.org/ns#"
   xmlns:rdf="http://www.w3.org/1999/02/22-rdf-syntax-ns#"
   xmlns:svg="http://www.w3.org/2000/svg"
   xmlns="http://www.w3.org/2000/svg"
   xmlns:sodipodi="http://sodipodi.sourceforge.net/DTD/sodipodi-0.dtd"
   xmlns:inkscape="http://www.inkscape.org/namespaces/inkscape"
   width="210mm"
   height="297mm"
   viewBox="0 0 210 297"
   version="1.1"
   id="svg8"
   inkscape:version="1.0.1 (c497b03c, 2020-09-10)"
   sodipodi:docname="glm_speech.svg">
  <defs
     id="defs2" />
  <sodipodi:namedview
     id="base"
     pagecolor="#ffffff"
     bordercolor="#666666"
     borderopacity="1.0"
     inkscape:pageopacity="0.0"
     inkscape:pageshadow="2"
     inkscape:zoom="0.35"
     inkscape:cx="437.40933"
     inkscape:cy="560"
     inkscape:document-units="mm"
     inkscape:current-layer="layer1"
     inkscape:document-rotation="0"
     showgrid="false"
     inkscape:window-width="1252"
     inkscape:window-height="792"
     inkscape:window-x="95"
     inkscape:window-y="49"
     inkscape:window-maximized="0" />
  <metadata
     id="metadata5">
    <rdf:RDF>
      <cc:Work
         rdf:about="">
        <dc:format>image/svg+xml</dc:format>
        <dc:type
           rdf:resource="http://purl.org/dc/dcmitype/StillImage" />
        <dc:title></dc:title>
      </cc:Work>
    </rdf:RDF>
  </metadata>
  <g
     inkscape:label="Layer 1"
     inkscape:groupmode="layer"
     id="layer1">
    <path
       style="fill:none;stroke:#9a0324;stroke-width:0"
       id="path10"
       d="m 22.029607,149.35875 c 2.852359,-7.2202 7.034499,-13.83787 11.263726,-20.31583 4.072562,-5.70503 8.284331,-11.34607 12.936257,-16.59565 3.115138,-3.57417 6.367819,-7.05177 10.00362,-10.10357 0,0 -10.177118,4.13642 -10.177118,4.13642 v 0 c -3.454744,3.1549 -6.646021,6.58004 -9.68869,10.13218 -4.517202,5.28076 -8.676007,10.87223 -12.590712,16.61157 -4.289384,6.72986 -8.493816,13.5666 -11.820993,20.83279 0,0 10.07391,-4.69791 10.07391,-4.69791 z" />
    <path
       style="fill:#000000;stroke:#9a0324;stroke-width:0"
       id="path18"
       d="m 19.586069,161.65883 c 1.228978,-4.14989 3.078739,-8.06383 5.006318,-11.9252 2.95682,-5.20716 5.863721,-10.43983 8.785424,-15.66623 1.757413,-3.06872 3.336894,-6.23741 5.301629,-9.18232 0.595564,-0.60315 0.82069,-1.51527 1.512411,-1.94585 0.548762,-1.07049 1.34412,-2.02357 1.97082,-3.06549 0.718527,-0.87897 1.10862,-2.13787 2.05331,-2.80297 0,0 -10.371524,4.3401 -10.371524,4.3401 v 0 c -0.625724,0.9852 -1.246579,1.97354 -1.887574,2.94895 -0.68107,0.99275 -1.367872,2.05054 -2.182281,2.92196 -0.424294,0.69293 -0.821216,1.40549 -1.278057,2.09131 -1.752549,2.9708 -3.237925,6.08679 -4.935984,9.08841 -2.864092,5.26711 -5.834383,10.46989 -8.758265,15.70367 -1.989027,4.00857 -3.900026,8.06557 -5.3004747,12.32444 0,0 10.0842477,-4.83078 10.0842477,-4.83078 z" />
    <path
       style="fill:#000000;stroke:#9a0324;stroke-width:0"
       id="path20"
       d="m 12.82939,165.81734 c 4.507428,-0.16584 9.013748,-0.15046 13.517286,0.0878 3.333779,0.23746 6.590752,1.0335 9.820077,1.8528 2.202627,0.56511 4.410585,1.10932 6.614543,1.67008 2.245328,0.60347 4.576181,0.7035 6.871399,1.00884 2.013047,0.2388 4.015216,0.48975 6.004351,0.8814 1.401061,0.28506 2.824704,0.42359 4.249279,0.51998 0.535792,0.0441 1.072211,0.06 1.60941,0.0685 0.651862,-0.12183 1.130726,0.10656 1.746869,0.31157 1.042588,0.26848 2.123152,0.34261 3.194916,0.39322 0,0 9.11054,-6.57661 9.11054,-6.57661 v 0 c -1.013827,-0.0139 -2.030367,-0.0412 -3.035443,-0.1865 -0.683064,-0.13217 -1.196538,-0.5953 -1.87884,-0.58865 -0.545505,0.0145 -1.091324,0.0247 -1.637022,0.0199 -1.409915,-0.0284 -2.821734,-0.10743 -4.213421,-0.34841 -2.027936,-0.36952 -4.04,-0.73439 -6.100982,-0.88332 -2.260875,-0.31775 -4.54283,-0.45463 -6.778501,-0.92624 -2.220862,-0.54522 -4.432805,-1.12323 -6.65884,-1.64204 -3.336051,-0.80826 -6.690577,-1.6307 -10.123741,-1.89485 -4.419933,-0.22504 -8.838148,-0.25124 -13.261957,-0.34271 0,0 -9.049923,6.57516 -9.049923,6.57516 z" />
    <path
       style="fill:#000000;stroke:#9a0324;stroke-width:0"
       id="path22"
       d="m 42.772642,115.3358 c -0.189217,-3.73043 -0.176078,-7.51494 0.581668,-11.19023 0.206726,-1.00268 0.505288,-1.98421 0.757933,-2.97632 2.386322,-7.671534 6.634789,-14.516828 10.987222,-21.197856 2.811145,-3.728305 5.587426,-8.451385 9.304814,-11.386984 0.505222,-0.398971 1.056714,-0.735566 1.585071,-1.10335 5.755852,-3.369408 -3.670895,2.092304 -5.488199,3.169465 -0.72616,0.430411 1.472324,-0.826421 2.21738,-1.223224 2.304571,-1.227376 4.653569,-2.377139 6.983254,-3.555815 3.692379,-1.889212 7.569851,-3.379573 11.444999,-4.843835 3.195283,-1.267995 6.508917,-2.187755 9.847813,-2.985614 3.916129,-0.710396 7.881614,-1.166628 11.844553,-1.532356 3.2005,-0.275833 6.41355,-0.327435 9.62388,-0.356367 3.01385,0.01185 6.03015,-0.07246 9.04179,0.05962 3.03687,0.152932 6.03229,0.746842 8.97575,1.483561 2.40442,0.608656 4.72545,1.492912 7.10936,2.168578 2.28301,0.687538 4.59988,1.244465 6.89761,1.880235 3.92879,1.072068 7.7792,2.395159 11.54329,3.94516 5.2819,2.10222 9.89316,5.383535 14.1923,9.042826 4.32341,3.713006 7.89085,8.139009 11.21027,12.740565 1.81867,2.704494 3.54703,5.485038 5.14869,8.325258 2.07143,4.036218 3.39712,8.429083 4.46146,12.825783 1.16377,4.51608 1.72246,9.13973 2.01112,13.78374 0.27199,4.73002 0.22011,9.4566 5.3e-4,14.18575 -0.63854,6.38757 -2.5728,12.53788 -4.43506,18.6503 -2.02467,6.01608 -3.9772,12.17469 -7.00707,17.78692 -0.46692,0.86488 -1.02531,1.67715 -1.53796,2.51572 -2.32215,3.97558 -5.75452,6.76006 -9.53543,9.24933 -3.7771,2.54947 -17.72355,10.62523 -0.63888,0.69748 -2.70867,1.55866 -5.50481,2.96 -8.33521,4.28235 -2.95897,1.49718 -6.12931,2.4977 -9.26551,3.54562 -5.16989,1.60638 -10.48251,2.70646 -15.81544,3.60814 -3.85839,0.71515 -7.74759,1.22922 -11.66148,1.50285 -2.79551,0.21816 -5.58803,0.22014 -8.36363,-0.18532 -2.81481,-0.54064 -5.54021,-1.43577 -8.2329,-2.40195 -2.29829,-0.83834 -4.58302,-1.73189 -6.78774,-2.7947 -2.057933,-1.12097 -4.129724,-2.23127 -6.124402,-3.46358 -1.733674,-1.11786 -3.385576,-2.34667 -5.044659,-3.56929 -1.412735,-1.06514 -2.8872,-2.04281 -4.321461,-3.07788 -0.913683,-0.71586 -1.805347,-1.45596 -2.721512,-2.16889 -0.970058,-0.78133 -1.900219,-1.5945 -2.793735,-2.4609 -0.802217,-0.66737 -1.49183,-1.44331 -2.22916,-2.17665 -0.510402,-0.53561 -0.978067,-1.05344 -1.232241,-1.7548 -0.398558,-0.55021 -0.675127,-1.1284 -0.833054,-1.78562 0.0089,-0.67986 -0.396626,-1.23927 -0.61709,-1.85813 -0.100952,-0.31524 -0.177583,-0.63779 -0.217419,-0.96621 -0.163476,-0.35621 -0.461248,-0.63789 -0.729144,-0.92592 0.0518,0.009 -0.19326,-0.52713 -0.46468,-0.81158 -0.636479,-0.63954 -0.270124,0.11401 -0.301585,-0.22583 -0.0085,-0.20172 0.01042,-0.40242 0.01471,-0.60454 0.0053,-0.15848 0.0024,-0.0835 0.0087,-0.22482 0,0 -10.089023,5.12934 -10.089023,5.12934 v 0 c 0.0038,0.14415 0.0019,0.0675 0.0057,0.23001 0.0064,0.29241 0.01511,0.58247 0.117393,0.8606 0.122304,0.35745 0.241692,0.88777 0.690232,0.8772 0.04294,-0.35369 0.123447,0.54287 0.371922,0.67725 0.162393,0.15206 0.50823,0.51229 0.389829,0.35895 0.107646,0.3708 0.219345,0.74065 0.353616,1.10287 0.232815,0.58758 0.514498,1.13306 0.562935,1.77867 0.216099,0.66649 0.477047,1.31525 0.904095,1.87865 0.358441,0.83437 0.874964,1.51207 1.4914,2.1712 0.781802,0.69115 1.423467,1.52031 2.270207,2.14577 0.942036,0.87238 1.862802,1.75971 2.83913,2.59601 0.960954,0.66523 1.829036,1.44981 2.772675,2.14336 1.430795,1.05383 2.957078,1.97042 4.35905,3.06494 1.712045,1.19158 3.343984,2.49752 5.116833,3.60435 2.00783,1.27806 4.125854,2.36888 6.186868,3.55652 2.221151,1.12539 4.554646,2.03143 6.897269,2.8691 2.731191,1.00428 5.501101,1.9007 8.333121,2.57863 2.82858,0.52828 5.67908,0.57658 8.5477,0.37417 3.99082,-0.2873 7.95944,-0.79684 11.89224,-1.54099 5.32177,-0.91741 10.61797,-1.99907 15.8315,-3.41594 3.11852,-1.01525 6.30308,-1.92385 9.25617,-3.36812 2.83887,-1.35006 5.69673,-2.67196 8.42095,-4.24781 6.51056,-3.75396 13.06586,-7.42772 19.33121,-11.58471 3.71562,-2.60645 6.99461,-5.55771 9.1781,-9.61719 0.49321,-0.86995 1.03084,-1.71618 1.47964,-2.60985 2.85136,-5.67783 4.6491,-11.86162 6.76541,-17.82565 1.95656,-6.21895 4.04956,-12.47807 4.57538,-19.01779 0.23357,-4.78055 0.32859,-9.57138 0.0523,-14.35314 -0.34463,-4.68865 -1.05107,-9.33075 -2.20645,-13.89327 -1.12453,-4.497211 -2.38482,-9.003621 -4.38297,-13.201982 -1.5928,-2.903752 -3.49173,-5.639649 -5.39302,-8.34708 -3.48083,-4.581324 -7.0968,-9.080823 -11.46519,-12.863401 -4.30877,-3.780486 -8.94401,-7.228464 -14.30902,-9.371412 -3.72622,-1.582325 -7.46996,-3.134778 -11.37575,-4.226441 -2.29526,-0.628811 -4.58366,-1.268667 -6.8761,-1.905699 -2.41948,-0.604056 -4.73566,-1.549855 -7.15913,-2.144365 -2.98151,-0.796267 -6.0292,-1.407158 -9.10888,-1.648987 -3.02289,-0.235881 -6.05959,-0.08184 -9.08962,-0.118761 -3.24478,0.0217 -6.49252,0.05926 -9.72866,0.321067 -3.98868,0.353528 -7.95973,0.885026 -11.927461,1.41379 -3.367339,0.717275 -6.700351,1.620615 -9.920925,2.846324 -3.934333,1.50581 -7.889841,2.990948 -11.6645,4.870884 -7.581244,3.849444 -15.233412,7.608332 -22.293972,12.392874 -0.512392,0.40843 -1.050141,0.786935 -1.537181,1.225291 -3.487084,3.13853 -5.999295,7.717348 -8.773642,11.437366 -4.349956,6.827332 -8.644778,13.808485 -11.041546,21.602552 -0.254707,1.03043 -0.554964,2.05065 -0.764117,3.09128 -0.76322,3.79737 -0.740256,7.6814 -0.895194,11.53268 0,0 9.950048,-5.0698 9.950048,-5.0698 z" />
    <path
       style="fill:#000000;stroke:#9a0324;stroke-width:0"
       id="path24"
       d="m 31.285135,114.97142 c 0.04031,1.23396 0.0113,2.4691 -0.01,3.7032 -0.01931,0.4912 -0.02697,0.98182 -0.01617,1.47322 0.0037,0.58835 0.0058,1.17668 0.0024,1.76503 -0.100354,0.81358 0.172434,1.51086 0.441534,2.26117 0.19444,0.58991 0.278048,1.19849 0.310504,1.81571 0.116116,4.19579 -4.057057,2.68737 10.059448,-4.85156 -0.007,-0.66144 -0.01259,-1.32282 -0.01902,-1.98429 0.292092,-0.73388 0.503044,-1.48243 0.690226,-2.24814 0.20035,-0.0772 -0.0013,-1.04871 0.100179,-1.07127 0.08602,-0.0191 0.150686,0.0914 0.226028,0.1371 -0.14593,0.11026 0.450395,-0.018 0.349153,0.041 -3.096419,1.80485 -12.463754,7.08371 -9.342922,5.32141 0.05083,-0.0287 0.108892,-0.0421 0.163338,-0.0632 3.330329,-1.88685 6.660658,-3.7737 9.990987,-5.66056 0.452453,-0.18646 0.689549,-0.80573 0.901247,-1.24975 -0.02508,-0.39821 -0.0226,-0.21238 -0.01445,-0.55735 0,0 -10.15115,4.96269 -10.15115,4.96269 v 0 c -0.07271,0.17291 -0.01042,0.11913 -0.174979,0.17411 -0.296344,0.37504 -0.649912,0.60291 -1.023049,0.87939 3.178805,-1.76348 6.379065,-3.48883 9.536417,-5.29044 0.147889,-0.0844 -0.35919,-0.12925 -0.508593,-0.0476 -3.333874,1.82268 -6.631606,3.71109 -9.924883,5.60614 -0.08954,0.0515 -0.144843,0.3551 -0.159091,0.40943 0.03947,0.45676 0.0043,0.84858 -0.135049,1.28557 -0.201329,0.82307 -0.536816,1.61924 -0.547632,2.47936 -0.006,0.66967 -0.01228,1.33929 -0.01175,2.00897 9.863412,-4.8025 10.526363,-1.26835 10.002292,-5.49961 -0.09354,-0.69818 -0.235937,-1.38404 -0.466781,-2.05152 -0.229901,-0.64049 -0.308631,-1.24352 -0.243133,-1.92701 -0.0035,-0.58913 -0.0013,-1.17824 0.0024,-1.76737 0.01045,-0.48592 0.0039,-0.97106 -0.01617,-1.45675 -0.02162,-1.23071 -0.05015,-2.46244 -0.01,-3.69302 0,0 -10.001157,5.09584 -10.001157,5.09584 z" />
    <text
       xml:space="preserve"
       style="font-size:14.11110000000000042px;line-height:1.25;font-family:Menlo;-inkscape-font-specification:'Menlo, Normal';stroke-width:0.264583;font-weight:normal;font-style:normal;font-stretch:normal;font-variant:normal;font-variant-ligatures:normal;font-variant-caps:normal;font-variant-numeric:normal;font-variant-east-asian:normal;"
       x="54.42857"
       y="94.494049"
       id="text28"><tspan
         sodipodi:role="line"
         id="tspan34">Use a GLM! </tspan><tspan
         sodipodi:role="line"
         id="tspan36">They're simple</tspan><tspan
         sodipodi:role="line"
         id="tspan38">and </tspan><tspan
         sodipodi:role="line"
         id="tspan40">interpretable!</tspan></text>
  </g>
</svg>
